<svg width="45" height="45" viewBox="0 0 45 45" fill="none" xmlns="http://www.w3.org/2000/svg">
<path d="M44.9868 0H0.0131836C0.0059025 0 0 0.0059025 0 0.0131836V44.9868C0 44.9941 0.0059025 45 0.0131836 45H44.9868C44.9941 45 45 44.9941 45 44.9868V0.0131836C45 0.0059025 44.9941 0 44.9868 0Z" fill="#37AEE2"/>
<path d="M17.4902 35.5078C16.5234 35.5078 16.6113 35.1562 16.3477 34.2773L13.5352 25.0488L35.0684 12.3926" fill="#C8DAEA"/>
<path d="M17.4902 35.5078C18.1055 35.5078 18.457 35.1562 18.8965 34.8047L22.8516 31.0254L17.9297 28.0371" fill="#A9C9DD"/>
<path d="M17.9297 28.0373L29.795 36.7385C31.0254 37.5295 32.0801 37.09 32.4317 35.508L37.2657 12.8322C37.7051 10.8986 36.4747 10.0197 35.1563 10.6349L6.94342 21.5334C5.09771 22.2365 5.09771 23.3791 6.59185 23.8185L13.8868 26.1037L30.586 15.4689C31.377 15.0295 32.0801 15.2052 31.5528 15.8205" fill="#F6FBFE"/>
</svg>
