<svg width="272" height="35" viewBox="0 0 272 35" fill="none" xmlns="http://www.w3.org/2000/svg">
<path d="M6.164 21.084C6.164 21.804 6.236 22.344 6.38 22.704C6.524 23.04 6.8 23.268 7.208 23.388C7.64 23.508 8.312 23.568 9.224 23.568C9.296 23.568 9.332 23.64 9.332 23.784C9.332 23.928 9.296 24 9.224 24C8.504 24 7.928 23.988 7.496 23.964L4.94 23.928L2.456 23.964C2.024 23.988 1.436 24 0.692 24C0.62 24 0.584 23.928 0.584 23.784C0.584 23.64 0.62 23.568 0.692 23.568C1.604 23.568 2.264 23.508 2.672 23.388C3.104 23.268 3.392 23.04 3.536 22.704C3.704 22.344 3.788 21.804 3.788 21.084V4.416C3.788 3.696 3.704 3.168 3.536 2.832C3.392 2.496 3.104 2.268 2.672 2.148C2.264 2.004 1.604 1.932 0.692 1.932C0.62 1.932 0.584 1.86 0.584 1.716C0.584 1.572 0.62 1.5 0.692 1.5L2.456 1.536C3.464 1.584 4.292 1.608 4.94 1.608C5.66 1.608 6.524 1.584 7.532 1.536L9.224 1.5C9.296 1.5 9.332 1.572 9.332 1.716C9.332 1.86 9.296 1.932 9.224 1.932C8.336 1.932 7.676 2.004 7.244 2.148C6.836 2.292 6.548 2.544 6.38 2.904C6.236 3.24 6.164 3.768 6.164 4.488V21.084ZM22.1491 22.128C22.2451 22.128 22.3171 22.188 22.3651 22.308C22.4131 22.404 22.4011 22.476 22.3291 22.524C21.4411 23.22 20.6371 23.712 19.9171 24C19.2211 24.288 18.4891 24.432 17.7211 24.432C16.7131 24.432 15.8851 24.204 15.2371 23.748C14.5891 23.292 14.2651 22.536 14.2651 21.48V13.02C14.2651 12.396 14.2171 11.952 14.1211 11.688C14.0491 11.424 13.8931 11.256 13.6531 11.184C13.4131 11.088 13.0051 11.04 12.4291 11.04C12.3331 11.04 12.2851 10.968 12.2851 10.824C12.2851 10.656 12.3331 10.572 12.4291 10.572C13.3891 10.548 14.1691 10.296 14.7691 9.816C15.3691 9.312 15.7171 8.652 15.8131 7.836C15.8131 7.764 15.9091 7.728 16.1011 7.728C16.2691 7.728 16.3531 7.764 16.3531 7.836V10.5C17.5531 10.476 19.2211 10.356 21.3571 10.14C21.4051 10.14 21.4531 10.236 21.5011 10.428C21.5731 10.596 21.6091 10.788 21.6091 11.004C21.6091 11.196 21.5611 11.4 21.4651 11.616C21.3931 11.808 21.3091 11.892 21.2131 11.868C19.8931 11.532 18.2731 11.34 16.3531 11.292V20.256C16.3531 21.24 16.5931 21.972 17.0731 22.452C17.5771 22.932 18.2851 23.172 19.1971 23.172C20.2531 23.172 21.2131 22.836 22.0771 22.164L22.1491 22.128ZM25.6012 1.212C26.3212 1.212 26.8852 1.488 27.2932 2.04C27.7012 2.568 27.9052 3.336 27.9052 4.344C27.9052 5.304 27.6892 6.204 27.2572 7.044C26.8252 7.86 26.1892 8.676 25.3492 9.492C25.3252 9.516 25.2892 9.528 25.2412 9.528C25.1692 9.528 25.1092 9.492 25.0612 9.42C25.0132 9.348 25.0132 9.288 25.0612 9.24C26.2372 8.04 26.8252 6.624 26.8252 4.992C26.8252 4.32 26.7052 3.828 26.4652 3.516C26.2492 3.876 25.8772 4.056 25.3492 4.056C24.9172 4.056 24.5692 3.924 24.3052 3.66C24.0652 3.396 23.9452 3.06 23.9452 2.652C23.9452 1.692 24.4972 1.212 25.6012 1.212ZM31.5344 12.3C31.5344 13.14 31.8104 13.812 32.3624 14.316C32.9144 14.796 33.7184 15.312 34.7744 15.864C35.6144 16.296 36.2624 16.668 36.7184 16.98C37.1984 17.292 37.6064 17.7 37.9424 18.204C38.2784 18.708 38.4464 19.32 38.4464 20.04C38.4464 21.264 37.9904 22.296 37.0784 23.136C36.1664 23.976 34.9304 24.396 33.3704 24.396C32.0984 24.396 30.9464 24.036 29.9144 23.316C29.7704 23.22 29.6984 23.076 29.6984 22.884L29.6264 20.076C29.6264 20.004 29.6864 19.968 29.8064 19.968C29.9504 19.944 30.0344 19.968 30.0584 20.04C30.5144 21.24 31.1024 22.152 31.8224 22.776C32.5664 23.4 33.4184 23.712 34.3784 23.712C35.1704 23.712 35.7704 23.52 36.1784 23.136C36.5864 22.752 36.7664 22.188 36.7184 21.444C36.6944 20.532 36.4064 19.836 35.8544 19.356C35.3264 18.852 34.5224 18.336 33.4424 17.808C32.6504 17.424 32.0144 17.076 31.5344 16.764C31.0784 16.452 30.6824 16.044 30.3464 15.54C30.0344 15.036 29.8784 14.412 29.8784 13.668C29.8784 12.372 30.3584 11.388 31.3184 10.716C32.3024 10.02 33.4544 9.672 34.7744 9.672C35.7344 9.672 36.6104 9.852 37.4024 10.212C37.5464 10.26 37.6304 10.32 37.6544 10.392C37.7024 10.44 37.7264 10.512 37.7264 10.608C37.7264 11.088 37.7144 11.46 37.6904 11.724L37.6544 13.236C37.6544 13.284 37.5824 13.308 37.4384 13.308C37.2944 13.308 37.2224 13.284 37.2224 13.236C37.2224 12.732 37.0304 12.264 36.6464 11.832C36.2624 11.376 35.7824 11.016 35.2064 10.752C34.6304 10.488 34.0544 10.356 33.4784 10.356C32.8784 10.356 32.3984 10.524 32.0384 10.86C31.7024 11.172 31.5344 11.652 31.5344 12.3ZM55.304 2.148C53.792 2.148 52.652 2.532 51.884 3.3C51.14 4.068 50.6 5.376 50.264 7.224C50.264 7.272 50.192 7.296 50.048 7.296C49.928 7.296 49.868 7.272 49.868 7.224C49.964 6.36 50.072 5.232 50.192 3.84C50.312 2.448 50.372 1.404 50.372 0.707999C50.372 0.588 50.432 0.528 50.552 0.528C50.696 0.528 50.768 0.588 50.768 0.707999C50.768 1.236 51.416 1.5 52.712 1.5C54.752 1.572 57.164 1.608 59.948 1.608C61.364 1.608 62.864 1.584 64.448 1.536L66.896 1.5C67.76 1.5 68.396 1.44 68.804 1.32C69.236 1.2 69.512 0.959998 69.632 0.599999C69.656 0.503999 69.728 0.455998 69.848 0.455998C69.968 0.455998 70.028 0.503999 70.028 0.599999C69.956 1.296 69.884 2.352 69.812 3.768C69.74 5.184 69.704 6.336 69.704 7.224C69.704 7.272 69.632 7.296 69.488 7.296C69.344 7.296 69.272 7.272 69.272 7.224C69.2 5.352 68.816 4.044 68.12 3.3C67.424 2.532 66.272 2.148 64.664 2.148C63.584 2.148 62.816 2.196 62.36 2.292C61.904 2.388 61.592 2.592 61.424 2.904C61.256 3.216 61.172 3.744 61.172 4.488V21.084C61.172 21.828 61.256 22.368 61.424 22.704C61.592 23.04 61.916 23.268 62.396 23.388C62.876 23.508 63.632 23.568 64.664 23.568C64.736 23.568 64.772 23.64 64.772 23.784C64.772 23.928 64.736 24 64.664 24C63.872 24 63.236 23.988 62.756 23.964L59.948 23.928L57.248 23.964C56.768 23.988 56.108 24 55.268 24C55.22 24 55.196 23.928 55.196 23.784C55.196 23.64 55.22 23.568 55.268 23.568C56.3 23.568 57.056 23.508 57.536 23.388C58.016 23.268 58.34 23.04 58.508 22.704C58.7 22.344 58.796 21.804 58.796 21.084V4.416C58.796 3.672 58.712 3.156 58.544 2.868C58.376 2.556 58.064 2.364 57.608 2.292C57.152 2.196 56.384 2.148 55.304 2.148ZM76.2484 5.568C75.7444 5.568 75.3484 5.436 75.0604 5.172C74.7964 4.908 74.6644 4.536 74.6644 4.056C74.6644 3.576 74.7964 3.204 75.0604 2.94C75.3484 2.676 75.7444 2.544 76.2484 2.544C76.7284 2.544 77.1004 2.676 77.3644 2.94C77.6284 3.204 77.7604 3.576 77.7604 4.056C77.7604 4.536 77.6284 4.908 77.3644 5.172C77.1004 5.436 76.7284 5.568 76.2484 5.568ZM73.2244 24C73.1764 24 73.1524 23.928 73.1524 23.784C73.1524 23.64 73.1764 23.568 73.2244 23.568C73.8724 23.568 74.3524 23.508 74.6644 23.388C75.0004 23.244 75.2284 23.004 75.3484 22.668C75.4684 22.308 75.5284 21.78 75.5284 21.084V14.352C75.5284 13.488 75.4324 12.864 75.2404 12.48C75.0724 12.096 74.7724 11.904 74.3404 11.904C73.9084 11.904 73.3684 12.072 72.7204 12.408H72.6844C72.5884 12.408 72.5164 12.348 72.4684 12.228C72.4204 12.108 72.4324 12.024 72.5044 11.976L77.1844 9.816L77.3284 9.78C77.3764 9.78 77.4364 9.816 77.5084 9.888C77.5804 9.936 77.6164 9.996 77.6164 10.068C77.6164 10.236 77.6044 10.716 77.5804 11.508C77.5564 12.3 77.5444 13.236 77.5444 14.316V21.084C77.5444 21.804 77.6044 22.332 77.7244 22.668C77.8444 23.004 78.0604 23.244 78.3724 23.388C78.6844 23.508 79.1644 23.568 79.8124 23.568C79.8844 23.568 79.9204 23.64 79.9204 23.784C79.9204 23.928 79.8844 24 79.8124 24C79.2604 24 78.8164 23.988 78.4804 23.964L76.5364 23.928L74.5924 23.964C74.2564 23.988 73.8004 24 73.2244 24ZM107.872 23.568C107.968 23.568 108.016 23.64 108.016 23.784C108.016 23.928 107.968 24 107.872 24C107.32 24 106.876 23.988 106.54 23.964L104.596 23.928L102.652 23.964C102.316 23.988 101.872 24 101.32 24C101.248 24 101.212 23.928 101.212 23.784C101.212 23.64 101.248 23.568 101.32 23.568C101.968 23.568 102.448 23.508 102.76 23.388C103.072 23.244 103.288 23.004 103.408 22.668C103.528 22.308 103.588 21.78 103.588 21.084V15.36C103.588 13.944 103.336 12.9 102.832 12.228C102.328 11.532 101.548 11.184 100.492 11.184C99.7722 11.184 99.0402 11.388 98.2962 11.796C97.5762 12.18 96.9042 12.732 96.2802 13.452C96.3042 13.572 96.3162 13.764 96.3162 14.028V21.084C96.3162 21.804 96.3762 22.332 96.4962 22.668C96.6162 23.004 96.8322 23.244 97.1442 23.388C97.4562 23.508 97.9362 23.568 98.5842 23.568C98.6562 23.568 98.6922 23.64 98.6922 23.784C98.6922 23.928 98.6562 24 98.5842 24C98.0322 24 97.5882 23.988 97.2522 23.964L95.3082 23.928L93.3282 23.964C93.0162 23.988 92.5842 24 92.0322 24C91.9602 24 91.9242 23.928 91.9242 23.784C91.9242 23.64 91.9602 23.568 92.0322 23.568C92.6802 23.568 93.1602 23.508 93.4722 23.388C93.7842 23.244 93.9882 23.004 94.0842 22.668C94.2042 22.332 94.2642 21.804 94.2642 21.084V15.36C94.2642 13.944 94.0122 12.9 93.5082 12.228C93.0042 11.532 92.2362 11.184 91.2042 11.184C90.4842 11.184 89.7642 11.376 89.0442 11.76C88.3242 12.144 87.6642 12.684 87.0642 13.38V21.084C87.0642 21.804 87.1122 22.332 87.2082 22.668C87.3282 23.004 87.5442 23.244 87.8562 23.388C88.1682 23.508 88.6482 23.568 89.2962 23.568C89.3682 23.568 89.4042 23.64 89.4042 23.784C89.4042 23.928 89.3682 24 89.2962 24C88.7442 24 88.3122 23.988 88.0002 23.964L86.0562 23.928L84.0762 23.964C83.7642 23.988 83.3322 24 82.7802 24C82.7082 24 82.6722 23.928 82.6722 23.784C82.6722 23.64 82.7082 23.568 82.7802 23.568C83.4282 23.568 83.9082 23.508 84.2202 23.388C84.5322 23.244 84.7362 23.004 84.8322 22.668C84.9522 22.332 85.0122 21.804 85.0122 21.084V13.956C85.0122 13.14 84.9162 12.552 84.7242 12.192C84.5322 11.832 84.2082 11.652 83.7522 11.652C83.3682 11.652 82.7202 11.832 81.8082 12.192H81.7362C81.6402 12.192 81.5682 12.144 81.5202 12.048C81.4962 11.928 81.5322 11.844 81.6282 11.796L85.8042 9.816L86.0202 9.78C86.2362 9.78 86.4642 10.056 86.7042 10.608C86.9442 11.16 87.0642 11.868 87.0642 12.732V12.768C87.9282 11.712 88.7922 10.944 89.6562 10.464C90.5202 9.984 91.4202 9.744 92.3562 9.744C93.4362 9.744 94.3122 10.008 94.9842 10.536C95.6562 11.064 96.0762 11.856 96.2442 12.912C97.1322 11.832 98.0202 11.04 98.9082 10.536C99.7962 10.008 100.72 9.744 101.68 9.744C102.952 9.744 103.924 10.116 104.596 10.86C105.292 11.58 105.64 12.66 105.64 14.1V21.084C105.64 21.804 105.688 22.332 105.784 22.668C105.904 23.004 106.12 23.244 106.432 23.388C106.744 23.508 107.224 23.568 107.872 23.568ZM121.541 21.984C121.613 21.984 121.673 22.032 121.721 22.128C121.793 22.2 121.805 22.272 121.757 22.344C120.173 23.736 118.421 24.432 116.501 24.432C115.109 24.432 113.921 24.108 112.937 23.46C111.953 22.812 111.197 21.96 110.669 20.904C110.165 19.848 109.913 18.72 109.913 17.52C109.913 16.104 110.249 14.808 110.921 13.632C111.593 12.432 112.505 11.496 113.657 10.824C114.833 10.128 116.117 9.78 117.509 9.78C118.853 9.78 119.885 10.14 120.605 10.86C121.325 11.58 121.685 12.588 121.685 13.884C121.685 14.22 121.649 14.46 121.577 14.604C121.529 14.748 121.433 14.82 121.289 14.82L112.361 14.856C112.313 15.384 112.289 15.816 112.289 16.152C112.289 18.24 112.781 19.932 113.765 21.228C114.749 22.524 116.129 23.172 117.905 23.172C118.625 23.172 119.237 23.076 119.741 22.884C120.269 22.692 120.857 22.392 121.505 21.984H121.541ZM116.321 10.5C115.289 10.5 114.437 10.848 113.765 11.544C113.093 12.216 112.649 13.164 112.433 14.388L119.273 14.244C119.273 13.02 119.009 12.096 118.481 11.472C117.953 10.824 117.233 10.5 116.321 10.5ZM138.554 2.148C137.042 2.148 135.902 2.532 135.134 3.3C134.39 4.068 133.85 5.376 133.514 7.224C133.514 7.272 133.442 7.296 133.298 7.296C133.178 7.296 133.118 7.272 133.118 7.224C133.214 6.36 133.322 5.232 133.442 3.84C133.562 2.448 133.622 1.404 133.622 0.707999C133.622 0.588 133.682 0.528 133.802 0.528C133.946 0.528 134.018 0.588 134.018 0.707999C134.018 1.236 134.666 1.5 135.962 1.5C138.002 1.572 140.414 1.608 143.198 1.608C144.614 1.608 146.114 1.584 147.698 1.536L150.146 1.5C151.01 1.5 151.646 1.44 152.054 1.32C152.486 1.2 152.762 0.959998 152.882 0.599999C152.906 0.503999 152.978 0.455998 153.098 0.455998C153.218 0.455998 153.278 0.503999 153.278 0.599999C153.206 1.296 153.134 2.352 153.062 3.768C152.99 5.184 152.954 6.336 152.954 7.224C152.954 7.272 152.882 7.296 152.738 7.296C152.594 7.296 152.522 7.272 152.522 7.224C152.45 5.352 152.066 4.044 151.37 3.3C150.674 2.532 149.522 2.148 147.914 2.148C146.834 2.148 146.066 2.196 145.61 2.292C145.154 2.388 144.842 2.592 144.674 2.904C144.506 3.216 144.422 3.744 144.422 4.488V21.084C144.422 21.828 144.506 22.368 144.674 22.704C144.842 23.04 145.166 23.268 145.646 23.388C146.126 23.508 146.882 23.568 147.914 23.568C147.986 23.568 148.022 23.64 148.022 23.784C148.022 23.928 147.986 24 147.914 24C147.122 24 146.486 23.988 146.006 23.964L143.198 23.928L140.498 23.964C140.018 23.988 139.358 24 138.518 24C138.47 24 138.446 23.928 138.446 23.784C138.446 23.64 138.47 23.568 138.518 23.568C139.55 23.568 140.306 23.508 140.786 23.388C141.266 23.268 141.59 23.04 141.758 22.704C141.95 22.344 142.046 21.804 142.046 21.084V4.416C142.046 3.672 141.962 3.156 141.794 2.868C141.626 2.556 141.314 2.364 140.858 2.292C140.402 2.196 139.634 2.148 138.554 2.148ZM159.929 24.468C158.537 24.468 157.301 24.132 156.221 23.46C155.165 22.764 154.349 21.84 153.773 20.688C153.197 19.512 152.909 18.24 152.909 16.872C152.909 15.312 153.281 13.992 154.025 12.912C154.793 11.808 155.765 10.992 156.941 10.464C158.141 9.912 159.353 9.636 160.577 9.636C161.993 9.636 163.229 9.984 164.285 10.68C165.341 11.376 166.145 12.3 166.697 13.452C167.273 14.58 167.561 15.78 167.561 17.052C167.561 18.54 167.213 19.848 166.517 20.976C165.821 22.08 164.885 22.944 163.709 23.568C162.557 24.168 161.297 24.468 159.929 24.468ZM160.973 23.784C162.293 23.784 163.313 23.316 164.033 22.38C164.753 21.444 165.113 20.004 165.113 18.06C165.113 16.572 164.861 15.24 164.357 14.064C163.877 12.888 163.205 11.976 162.341 11.328C161.477 10.656 160.493 10.32 159.389 10.32C158.093 10.32 157.085 10.788 156.365 11.724C155.669 12.66 155.321 14.004 155.321 15.756C155.321 17.22 155.561 18.564 156.041 19.788C156.521 21.012 157.193 21.984 158.057 22.704C158.921 23.424 159.893 23.784 160.973 23.784ZM188.185 24.144C187.489 24.144 186.685 24.108 185.773 24.036C185.437 24.012 185.005 23.988 184.477 23.964C183.973 23.94 183.409 23.928 182.785 23.928L180.337 23.964C179.905 23.988 179.305 24 178.537 24C178.489 24 178.465 23.928 178.465 23.784C178.465 23.64 178.489 23.568 178.537 23.568C179.449 23.568 180.109 23.508 180.517 23.388C180.949 23.268 181.237 23.04 181.381 22.704C181.549 22.344 181.633 21.804 181.633 21.084V4.416C181.633 3.696 181.561 3.168 181.417 2.832C181.273 2.496 180.985 2.268 180.553 2.148C180.145 2.004 179.485 1.932 178.573 1.932C178.525 1.932 178.501 1.86 178.501 1.716C178.501 1.572 178.525 1.5 178.573 1.5L180.373 1.536C181.381 1.584 182.185 1.608 182.785 1.608C183.697 1.608 184.597 1.572 185.485 1.5C186.541 1.452 187.273 1.428 187.681 1.428C190.177 1.428 192.385 1.908 194.305 2.868C196.249 3.828 197.749 5.136 198.805 6.792C199.861 8.448 200.389 10.308 200.389 12.372C200.389 14.7 199.837 16.764 198.733 18.564C197.653 20.34 196.177 21.72 194.305 22.704C192.433 23.664 190.393 24.144 188.185 24.144ZM187.825 23.604C189.745 23.604 191.449 23.208 192.937 22.416C194.425 21.6 195.577 20.412 196.393 18.852C197.233 17.268 197.653 15.372 197.653 13.164C197.653 11.076 197.257 9.18 196.465 7.476C195.673 5.772 194.545 4.428 193.081 3.444C191.617 2.46 189.925 1.968 188.005 1.968C186.973 1.968 186.169 2.028 185.593 2.148C185.041 2.268 184.633 2.508 184.369 2.868C184.105 3.228 183.973 3.768 183.973 4.488V20.688C183.973 21.408 184.069 21.972 184.261 22.38C184.477 22.788 184.861 23.1 185.413 23.316C185.989 23.508 186.793 23.604 187.825 23.604ZM207.1 5.568C206.596 5.568 206.2 5.436 205.912 5.172C205.648 4.908 205.516 4.536 205.516 4.056C205.516 3.576 205.648 3.204 205.912 2.94C206.2 2.676 206.596 2.544 207.1 2.544C207.58 2.544 207.952 2.676 208.216 2.94C208.48 3.204 208.612 3.576 208.612 4.056C208.612 4.536 208.48 4.908 208.216 5.172C207.952 5.436 207.58 5.568 207.1 5.568ZM204.076 24C204.028 24 204.004 23.928 204.004 23.784C204.004 23.64 204.028 23.568 204.076 23.568C204.724 23.568 205.204 23.508 205.516 23.388C205.852 23.244 206.08 23.004 206.2 22.668C206.32 22.308 206.38 21.78 206.38 21.084V14.352C206.38 13.488 206.284 12.864 206.092 12.48C205.924 12.096 205.624 11.904 205.192 11.904C204.76 11.904 204.22 12.072 203.572 12.408H203.536C203.44 12.408 203.368 12.348 203.32 12.228C203.272 12.108 203.284 12.024 203.356 11.976L208.036 9.816L208.18 9.78C208.228 9.78 208.288 9.816 208.36 9.888C208.432 9.936 208.468 9.996 208.468 10.068C208.468 10.236 208.456 10.716 208.432 11.508C208.408 12.3 208.396 13.236 208.396 14.316V21.084C208.396 21.804 208.456 22.332 208.576 22.668C208.696 23.004 208.912 23.244 209.224 23.388C209.536 23.508 210.016 23.568 210.664 23.568C210.736 23.568 210.772 23.64 210.772 23.784C210.772 23.928 210.736 24 210.664 24C210.112 24 209.668 23.988 209.332 23.964L207.388 23.928L205.444 23.964C205.108 23.988 204.652 24 204.076 24ZM227.528 10.104C227.576 10.104 227.6 10.176 227.6 10.32C227.6 10.464 227.576 10.536 227.528 10.536C226.928 10.536 226.412 10.74 225.98 11.148C225.548 11.532 225.14 12.204 224.756 13.164L220.256 23.964C220.208 24.084 220.076 24.144 219.86 24.144C219.644 24.144 219.512 24.084 219.464 23.964L214.424 13.092C213.944 12.06 213.536 11.376 213.2 11.04C212.888 10.704 212.492 10.536 212.012 10.536C211.94 10.536 211.904 10.464 211.904 10.32C211.904 10.176 211.94 10.104 212.012 10.104C212.492 10.104 212.864 10.116 213.128 10.14L214.496 10.176L216.836 10.14C217.196 10.116 217.676 10.104 218.276 10.104C218.348 10.104 218.384 10.176 218.384 10.32C218.384 10.464 218.348 10.536 218.276 10.536C216.836 10.536 216.116 10.824 216.116 11.4C216.116 11.568 216.164 11.748 216.26 11.94L220.652 21.228L224.036 12.984C224.204 12.528 224.288 12.18 224.288 11.94C224.288 11.46 224.06 11.112 223.604 10.896C223.148 10.656 222.428 10.536 221.444 10.536C221.396 10.536 221.372 10.464 221.372 10.32C221.372 10.176 221.396 10.104 221.444 10.104C222.092 10.104 222.584 10.116 222.92 10.14L225.08 10.176L226.376 10.14C226.616 10.116 227 10.104 227.528 10.104ZM232.553 5.568C232.049 5.568 231.653 5.436 231.365 5.172C231.101 4.908 230.969 4.536 230.969 4.056C230.969 3.576 231.101 3.204 231.365 2.94C231.653 2.676 232.049 2.544 232.553 2.544C233.033 2.544 233.405 2.676 233.669 2.94C233.933 3.204 234.065 3.576 234.065 4.056C234.065 4.536 233.933 4.908 233.669 5.172C233.405 5.436 233.033 5.568 232.553 5.568ZM229.529 24C229.481 24 229.457 23.928 229.457 23.784C229.457 23.64 229.481 23.568 229.529 23.568C230.177 23.568 230.657 23.508 230.969 23.388C231.305 23.244 231.533 23.004 231.653 22.668C231.773 22.308 231.833 21.78 231.833 21.084V14.352C231.833 13.488 231.737 12.864 231.545 12.48C231.377 12.096 231.077 11.904 230.645 11.904C230.213 11.904 229.673 12.072 229.025 12.408H228.989C228.893 12.408 228.821 12.348 228.773 12.228C228.725 12.108 228.737 12.024 228.809 11.976L233.489 9.816L233.633 9.78C233.681 9.78 233.741 9.816 233.813 9.888C233.885 9.936 233.921 9.996 233.921 10.068C233.921 10.236 233.909 10.716 233.885 11.508C233.861 12.3 233.849 13.236 233.849 14.316V21.084C233.849 21.804 233.909 22.332 234.029 22.668C234.149 23.004 234.365 23.244 234.677 23.388C234.989 23.508 235.469 23.568 236.117 23.568C236.189 23.568 236.225 23.64 236.225 23.784C236.225 23.928 236.189 24 236.117 24C235.565 24 235.121 23.988 234.785 23.964L232.841 23.928L230.897 23.964C230.561 23.988 230.105 24 229.529 24ZM255.285 23.568C255.357 23.568 255.393 23.64 255.393 23.784C255.393 23.928 255.357 24 255.285 24C254.733 24 254.301 23.988 253.989 23.964L252.045 23.928L250.065 23.964C249.753 23.988 249.321 24 248.769 24C248.697 24 248.661 23.928 248.661 23.784C248.661 23.64 248.697 23.568 248.769 23.568C249.417 23.568 249.897 23.508 250.209 23.388C250.521 23.244 250.725 23.004 250.821 22.668C250.941 22.332 251.001 21.804 251.001 21.084V15.252C251.001 13.836 250.725 12.792 250.173 12.12C249.645 11.448 248.817 11.112 247.689 11.112C246.945 11.112 246.189 11.316 245.421 11.724C244.677 12.108 243.993 12.648 243.369 13.344V21.084C243.369 21.804 243.417 22.332 243.513 22.668C243.633 23.004 243.849 23.244 244.161 23.388C244.473 23.508 244.953 23.568 245.601 23.568C245.673 23.568 245.709 23.64 245.709 23.784C245.709 23.928 245.673 24 245.601 24C245.049 24 244.617 23.988 244.305 23.964L242.361 23.928L240.381 23.964C240.069 23.988 239.637 24 239.085 24C239.013 24 238.977 23.928 238.977 23.784C238.977 23.64 239.013 23.568 239.085 23.568C239.733 23.568 240.213 23.508 240.525 23.388C240.837 23.244 241.041 23.004 241.137 22.668C241.257 22.332 241.317 21.804 241.317 21.084V13.956C241.317 13.14 241.221 12.552 241.029 12.192C240.837 11.832 240.513 11.652 240.057 11.652C239.673 11.652 239.025 11.832 238.113 12.192H238.041C237.945 12.192 237.873 12.144 237.825 12.048C237.801 11.928 237.837 11.844 237.933 11.796L242.109 9.816L242.325 9.78C242.541 9.78 242.769 10.056 243.009 10.608C243.249 11.16 243.369 11.868 243.369 12.732C244.281 11.676 245.181 10.896 246.069 10.392C246.981 9.888 247.917 9.636 248.877 9.636C250.221 9.636 251.253 10.008 251.973 10.752C252.693 11.496 253.053 12.588 253.053 14.028V21.084C253.053 21.804 253.101 22.332 253.197 22.668C253.317 23.004 253.533 23.244 253.845 23.388C254.157 23.508 254.637 23.568 255.285 23.568ZM265.135 23.136C266.431 23.16 267.475 23.232 268.267 23.352C269.059 23.448 269.791 23.76 270.463 24.288C271.135 24.816 271.471 25.656 271.471 26.808C271.471 28.104 271.051 29.304 270.211 30.408C269.371 31.536 268.255 32.424 266.863 33.072C265.495 33.744 264.055 34.08 262.543 34.08C260.887 34.08 259.579 33.708 258.619 32.964C257.683 32.244 257.215 31.296 257.215 30.12C257.215 28.344 258.451 26.592 260.923 24.864C260.011 24.744 259.315 24.492 258.835 24.108C258.355 23.748 258.115 23.196 258.115 22.452C258.115 21.732 258.319 21.096 258.727 20.544C259.135 19.968 259.795 19.32 260.707 18.6C259.891 18.192 259.255 17.628 258.799 16.908C258.343 16.188 258.115 15.396 258.115 14.532C258.115 13.188 258.643 12.072 259.699 11.184C260.779 10.296 262.159 9.852 263.839 9.852C265.399 9.852 266.647 10.224 267.583 10.968C268.231 10.584 268.855 10.296 269.455 10.104C270.079 9.912 270.739 9.816 271.435 9.816C271.483 9.816 271.519 9.9 271.543 10.068C271.591 10.236 271.615 10.416 271.615 10.608C271.615 10.896 271.579 11.184 271.507 11.472C271.459 11.76 271.387 11.88 271.291 11.832C270.883 11.664 270.487 11.532 270.103 11.436C269.743 11.34 269.335 11.292 268.879 11.292C268.639 11.292 268.351 11.316 268.015 11.364C268.831 12.252 269.239 13.284 269.239 14.46C269.239 15.3 268.999 16.092 268.519 16.836C268.063 17.556 267.403 18.132 266.539 18.564C265.675 18.996 264.691 19.212 263.587 19.212C262.747 19.212 261.967 19.08 261.247 18.816C260.767 19.224 260.419 19.608 260.203 19.968C260.011 20.328 259.915 20.724 259.915 21.156C259.915 21.684 260.071 22.092 260.383 22.38C260.719 22.644 261.259 22.836 262.003 22.956C262.747 23.076 263.791 23.136 265.135 23.136ZM262.975 10.392C261.223 10.392 260.347 11.484 260.347 13.668C260.347 14.748 260.539 15.672 260.923 16.44C261.307 17.184 261.799 17.748 262.399 18.132C262.999 18.492 263.623 18.672 264.271 18.672C265.087 18.672 265.735 18.396 266.215 17.844C266.719 17.268 266.971 16.404 266.971 15.252C266.971 13.764 266.587 12.588 265.819 11.724C265.051 10.836 264.103 10.392 262.975 10.392ZM264.019 33C265.675 33 267.031 32.556 268.087 31.668C269.143 30.804 269.671 29.64 269.671 28.176C269.671 27.216 269.431 26.508 268.951 26.052C268.495 25.62 267.883 25.344 267.115 25.224C266.347 25.104 265.279 25.044 263.911 25.044C263.335 25.044 262.615 25.02 261.751 24.972C260.959 25.476 260.347 26.028 259.915 26.628C259.507 27.252 259.303 28.02 259.303 28.932C259.303 30.18 259.711 31.164 260.527 31.884C261.367 32.628 262.531 33 264.019 33Z" fill="black"/>
</svg>
