<svg width="377" height="47" viewBox="0 0 377 47" fill="none" xmlns="http://www.w3.org/2000/svg">
<path d="M7.95 28.95C7.95 29.95 8.05 30.7 8.25 31.2C8.45 31.6667 8.83333 31.9833 9.4 32.15C10 32.3167 10.9333 32.4 12.2 32.4C12.3 32.4 12.35 32.5 12.35 32.7C12.35 32.9 12.3 33 12.2 33C11.2 33 10.4 32.9833 9.8 32.95L6.25 32.9L2.8 32.95C2.2 32.9833 1.38333 33 0.35 33C0.25 33 0.2 32.9 0.2 32.7C0.2 32.5 0.25 32.4 0.35 32.4C1.61667 32.4 2.53333 32.3167 3.1 32.15C3.7 31.9833 4.1 31.6667 4.3 31.2C4.53333 30.7 4.65 29.95 4.65 28.95V5.8C4.65 4.8 4.53333 4.06667 4.3 3.6C4.1 3.13333 3.7 2.81666 3.1 2.65C2.53333 2.45 1.61667 2.35 0.35 2.35C0.25 2.35 0.2 2.25 0.2 2.05C0.2 1.85 0.25 1.75 0.35 1.75L2.8 1.8C4.2 1.86667 5.35 1.9 6.25 1.9C7.25 1.9 8.45 1.86667 9.85 1.8L12.2 1.75C12.3 1.75 12.35 1.85 12.35 2.05C12.35 2.25 12.3 2.35 12.2 2.35C10.9667 2.35 10.05 2.45 9.45 2.65C8.88333 2.85 8.48333 3.2 8.25 3.7C8.05 4.16667 7.95 4.9 7.95 5.9V28.95ZM30.1516 30.4C30.2849 30.4 30.3849 30.4833 30.4516 30.65C30.5182 30.7833 30.5016 30.8833 30.4016 30.95C29.1682 31.9167 28.0516 32.6 27.0516 33C26.0849 33.4 25.0682 33.6 24.0016 33.6C22.6016 33.6 21.4516 33.2833 20.5516 32.65C19.6516 32.0167 19.2016 30.9667 19.2016 29.5V17.75C19.2016 16.8833 19.1349 16.2667 19.0016 15.9C18.9016 15.5333 18.6849 15.3 18.3516 15.2C18.0182 15.0667 17.4516 15 16.6516 15C16.5182 15 16.4516 14.9 16.4516 14.7C16.4516 14.4667 16.5182 14.35 16.6516 14.35C17.9849 14.3167 19.0682 13.9667 19.9016 13.3C20.7349 12.6 21.2182 11.6833 21.3516 10.55C21.3516 10.45 21.4849 10.4 21.7516 10.4C21.9849 10.4 22.1016 10.45 22.1016 10.55V14.25C23.7682 14.2167 26.0849 14.05 29.0516 13.75C29.1182 13.75 29.1849 13.8833 29.2516 14.15C29.3516 14.3833 29.4016 14.65 29.4016 14.95C29.4016 15.2167 29.3349 15.5 29.2016 15.8C29.1016 16.0667 28.9849 16.1833 28.8516 16.15C27.0182 15.6833 24.7682 15.4167 22.1016 15.35V27.8C22.1016 29.1667 22.4349 30.1833 23.1016 30.85C23.8016 31.5167 24.7849 31.85 26.0516 31.85C27.5182 31.85 28.8516 31.3833 30.0516 30.45L30.1516 30.4ZM34.9461 1.35C35.9461 1.35 36.7294 1.73333 37.2961 2.5C37.8628 3.23333 38.1461 4.3 38.1461 5.7C38.1461 7.03333 37.8461 8.28333 37.2461 9.45C36.6461 10.5833 35.7628 11.7167 34.5961 12.85C34.5628 12.8833 34.5128 12.9 34.4461 12.9C34.3461 12.9 34.2628 12.85 34.1961 12.75C34.1294 12.65 34.1294 12.5667 34.1961 12.5C35.8294 10.8333 36.6461 8.86667 36.6461 6.6C36.6461 5.66666 36.4794 4.98333 36.1461 4.55C35.8461 5.05 35.3294 5.3 34.5961 5.3C33.9961 5.3 33.5128 5.11667 33.1461 4.75C32.8128 4.38333 32.6461 3.91666 32.6461 3.35C32.6461 2.01667 33.4128 1.35 34.9461 1.35ZM43.1867 16.75C43.1867 17.9167 43.5701 18.85 44.3367 19.55C45.1034 20.2167 46.2201 20.9333 47.6867 21.7C48.8534 22.3 49.7534 22.8167 50.3867 23.25C51.0534 23.6833 51.6201 24.25 52.0867 24.95C52.5534 25.65 52.7867 26.5 52.7867 27.5C52.7867 29.2 52.1534 30.6333 50.8867 31.8C49.6201 32.9667 47.9034 33.55 45.7367 33.55C43.9701 33.55 42.3701 33.05 40.9367 32.05C40.7367 31.9167 40.6367 31.7167 40.6367 31.45L40.5367 27.55C40.5367 27.45 40.6201 27.4 40.7867 27.4C40.9867 27.3667 41.1034 27.4 41.1367 27.5C41.7701 29.1667 42.5867 30.4333 43.5867 31.3C44.6201 32.1667 45.8034 32.6 47.1367 32.6C48.2367 32.6 49.0701 32.3333 49.6367 31.8C50.2034 31.2667 50.4534 30.4833 50.3867 29.45C50.3534 28.1833 49.9534 27.2167 49.1867 26.55C48.4534 25.85 47.3367 25.1333 45.8367 24.4C44.7367 23.8667 43.8534 23.3833 43.1867 22.95C42.5534 22.5167 42.0034 21.95 41.5367 21.25C41.1034 20.55 40.8867 19.6833 40.8867 18.65C40.8867 16.85 41.5534 15.4833 42.8867 14.55C44.2534 13.5833 45.8534 13.1 47.6867 13.1C49.0201 13.1 50.2367 13.35 51.3367 13.85C51.5367 13.9167 51.6534 14 51.6867 14.1C51.7534 14.1667 51.7867 14.2667 51.7867 14.4C51.7867 15.0667 51.7701 15.5833 51.7367 15.95L51.6867 18.05C51.6867 18.1167 51.5867 18.15 51.3867 18.15C51.1867 18.15 51.0867 18.1167 51.0867 18.05C51.0867 17.35 50.8201 16.7 50.2867 16.1C49.7534 15.4667 49.0867 14.9667 48.2867 14.6C47.4867 14.2333 46.6867 14.05 45.8867 14.05C45.0534 14.05 44.3867 14.2833 43.8867 14.75C43.4201 15.1833 43.1867 15.85 43.1867 16.75ZM76.2 2.65C74.1 2.65 72.5167 3.18333 71.45 4.25C70.4167 5.31666 69.6667 7.13333 69.2 9.7C69.2 9.76667 69.1 9.8 68.9 9.8C68.7333 9.8 68.65 9.76667 68.65 9.7C68.7833 8.5 68.9333 6.93333 69.1 5C69.2667 3.06667 69.35 1.61667 69.35 0.649999C69.35 0.483333 69.4333 0.399999 69.6 0.399999C69.8 0.399999 69.9 0.483333 69.9 0.649999C69.9 1.38333 70.8 1.75 72.6 1.75C75.4333 1.85 78.7833 1.9 82.65 1.9C84.6167 1.9 86.7 1.86667 88.9 1.8L92.3 1.75C93.5 1.75 94.3833 1.66667 94.95 1.5C95.55 1.33333 95.9333 0.999998 96.1 0.499998C96.1333 0.366665 96.2333 0.299998 96.4 0.299998C96.5667 0.299998 96.65 0.366665 96.65 0.499998C96.55 1.46666 96.45 2.93333 96.35 4.9C96.25 6.86667 96.2 8.46667 96.2 9.7C96.2 9.76667 96.1 9.8 95.9 9.8C95.7 9.8 95.6 9.76667 95.6 9.7C95.5 7.1 94.9667 5.28333 94 4.25C93.0333 3.18333 91.4333 2.65 89.2 2.65C87.7 2.65 86.6333 2.71666 86 2.85C85.3667 2.98333 84.9333 3.26667 84.7 3.7C84.4667 4.13333 84.35 4.86667 84.35 5.9V28.95C84.35 29.9833 84.4667 30.7333 84.7 31.2C84.9333 31.6667 85.3833 31.9833 86.05 32.15C86.7167 32.3167 87.7667 32.4 89.2 32.4C89.3 32.4 89.35 32.5 89.35 32.7C89.35 32.9 89.3 33 89.2 33C88.1 33 87.2167 32.9833 86.55 32.95L82.65 32.9L78.9 32.95C78.2333 32.9833 77.3167 33 76.15 33C76.0833 33 76.05 32.9 76.05 32.7C76.05 32.5 76.0833 32.4 76.15 32.4C77.5833 32.4 78.6333 32.3167 79.3 32.15C79.9667 31.9833 80.4167 31.6667 80.65 31.2C80.9167 30.7 81.05 29.95 81.05 28.95V5.8C81.05 4.76666 80.9333 4.05 80.7 3.65C80.4667 3.21667 80.0333 2.95 79.4 2.85C78.7667 2.71666 77.7 2.65 76.2 2.65ZM105.289 7.4C104.589 7.4 104.039 7.21667 103.639 6.85C103.273 6.48333 103.089 5.96667 103.089 5.3C103.089 4.63333 103.273 4.11667 103.639 3.75C104.039 3.38333 104.589 3.2 105.289 3.2C105.956 3.2 106.473 3.38333 106.839 3.75C107.206 4.11667 107.389 4.63333 107.389 5.3C107.389 5.96667 107.206 6.48333 106.839 6.85C106.473 7.21667 105.956 7.4 105.289 7.4ZM101.089 33C101.023 33 100.989 32.9 100.989 32.7C100.989 32.5 101.023 32.4 101.089 32.4C101.989 32.4 102.656 32.3167 103.089 32.15C103.556 31.95 103.873 31.6167 104.039 31.15C104.206 30.65 104.289 29.9167 104.289 28.95V19.6C104.289 18.4 104.156 17.5333 103.889 17C103.656 16.4667 103.239 16.2 102.639 16.2C102.039 16.2 101.289 16.4333 100.389 16.9H100.339C100.206 16.9 100.106 16.8167 100.039 16.65C99.9728 16.4833 99.9895 16.3667 100.089 16.3L106.589 13.3L106.789 13.25C106.856 13.25 106.939 13.3 107.039 13.4C107.139 13.4667 107.189 13.55 107.189 13.65C107.189 13.8833 107.173 14.55 107.139 15.65C107.106 16.75 107.089 18.05 107.089 19.55V28.95C107.089 29.95 107.173 30.6833 107.339 31.15C107.506 31.6167 107.806 31.95 108.239 32.15C108.673 32.3167 109.339 32.4 110.239 32.4C110.339 32.4 110.389 32.5 110.389 32.7C110.389 32.9 110.339 33 110.239 33C109.473 33 108.856 32.9833 108.389 32.95L105.689 32.9L102.989 32.95C102.523 32.9833 101.889 33 101.089 33ZM149.211 32.4C149.345 32.4 149.411 32.5 149.411 32.7C149.411 32.9 149.345 33 149.211 33C148.445 33 147.828 32.9833 147.361 32.95L144.661 32.9L141.961 32.95C141.495 32.9833 140.878 33 140.111 33C140.011 33 139.961 32.9 139.961 32.7C139.961 32.5 140.011 32.4 140.111 32.4C141.011 32.4 141.678 32.3167 142.111 32.15C142.545 31.95 142.845 31.6167 143.011 31.15C143.178 30.65 143.261 29.9167 143.261 28.95V21C143.261 19.0333 142.911 17.5833 142.211 16.65C141.511 15.6833 140.428 15.2 138.961 15.2C137.961 15.2 136.945 15.4833 135.911 16.05C134.911 16.5833 133.978 17.35 133.111 18.35C133.145 18.5167 133.161 18.7833 133.161 19.15V28.95C133.161 29.95 133.245 30.6833 133.411 31.15C133.578 31.6167 133.878 31.95 134.311 32.15C134.745 32.3167 135.411 32.4 136.311 32.4C136.411 32.4 136.461 32.5 136.461 32.7C136.461 32.9 136.411 33 136.311 33C135.545 33 134.928 32.9833 134.461 32.95L131.761 32.9L129.011 32.95C128.578 32.9833 127.978 33 127.211 33C127.111 33 127.061 32.9 127.061 32.7C127.061 32.5 127.111 32.4 127.211 32.4C128.111 32.4 128.778 32.3167 129.211 32.15C129.645 31.95 129.928 31.6167 130.061 31.15C130.228 30.6833 130.311 29.95 130.311 28.95V21C130.311 19.0333 129.961 17.5833 129.261 16.65C128.561 15.6833 127.495 15.2 126.061 15.2C125.061 15.2 124.061 15.4667 123.061 16C122.061 16.5333 121.145 17.2833 120.311 18.25V28.95C120.311 29.95 120.378 30.6833 120.511 31.15C120.678 31.6167 120.978 31.95 121.411 32.15C121.845 32.3167 122.511 32.4 123.411 32.4C123.511 32.4 123.561 32.5 123.561 32.7C123.561 32.9 123.511 33 123.411 33C122.645 33 122.045 32.9833 121.611 32.95L118.911 32.9L116.161 32.95C115.728 32.9833 115.128 33 114.361 33C114.261 33 114.211 32.9 114.211 32.7C114.211 32.5 114.261 32.4 114.361 32.4C115.261 32.4 115.928 32.3167 116.361 32.15C116.795 31.95 117.078 31.6167 117.211 31.15C117.378 30.6833 117.461 29.95 117.461 28.95V19.05C117.461 17.9167 117.328 17.1 117.061 16.6C116.795 16.1 116.345 15.85 115.711 15.85C115.178 15.85 114.278 16.1 113.011 16.6H112.911C112.778 16.6 112.678 16.5333 112.611 16.4C112.578 16.2333 112.628 16.1167 112.761 16.05L118.561 13.3L118.861 13.25C119.161 13.25 119.478 13.6333 119.811 14.4C120.145 15.1667 120.311 16.15 120.311 17.35V17.4C121.511 15.9333 122.711 14.8667 123.911 14.2C125.111 13.5333 126.361 13.2 127.661 13.2C129.161 13.2 130.378 13.5667 131.311 14.3C132.245 15.0333 132.828 16.1333 133.061 17.6C134.295 16.1 135.528 15 136.761 14.3C137.995 13.5667 139.278 13.2 140.611 13.2C142.378 13.2 143.728 13.7167 144.661 14.75C145.628 15.75 146.111 17.25 146.111 19.25V28.95C146.111 29.95 146.178 30.6833 146.311 31.15C146.478 31.6167 146.778 31.95 147.211 32.15C147.645 32.3167 148.311 32.4 149.211 32.4ZM168.196 30.2C168.296 30.2 168.379 30.2667 168.446 30.4C168.546 30.5 168.563 30.6 168.496 30.7C166.296 32.6333 163.863 33.6 161.196 33.6C159.263 33.6 157.613 33.15 156.246 32.25C154.879 31.35 153.829 30.1667 153.096 28.7C152.396 27.2333 152.046 25.6667 152.046 24C152.046 22.0333 152.513 20.2333 153.446 18.6C154.379 16.9333 155.646 15.6333 157.246 14.7C158.879 13.7333 160.663 13.25 162.596 13.25C164.463 13.25 165.896 13.75 166.896 14.75C167.896 15.75 168.396 17.15 168.396 18.95C168.396 19.4167 168.346 19.75 168.246 19.95C168.179 20.15 168.046 20.25 167.846 20.25L155.446 20.3C155.379 21.0333 155.346 21.6333 155.346 22.1C155.346 25 156.029 27.35 157.396 29.15C158.763 30.95 160.679 31.85 163.146 31.85C164.146 31.85 164.996 31.7167 165.696 31.45C166.429 31.1833 167.246 30.7667 168.146 30.2H168.196ZM160.946 14.25C159.513 14.25 158.329 14.7333 157.396 15.7C156.463 16.6333 155.846 17.95 155.546 19.65L165.046 19.45C165.046 17.75 164.679 16.4667 163.946 15.6C163.213 14.7 162.213 14.25 160.946 14.25ZM191.825 2.65C189.725 2.65 188.142 3.18333 187.075 4.25C186.042 5.31666 185.292 7.13333 184.825 9.7C184.825 9.76667 184.725 9.8 184.525 9.8C184.358 9.8 184.275 9.76667 184.275 9.7C184.408 8.5 184.558 6.93333 184.725 5C184.892 3.06667 184.975 1.61667 184.975 0.649999C184.975 0.483333 185.058 0.399999 185.225 0.399999C185.425 0.399999 185.525 0.483333 185.525 0.649999C185.525 1.38333 186.425 1.75 188.225 1.75C191.058 1.85 194.408 1.9 198.275 1.9C200.242 1.9 202.325 1.86667 204.525 1.8L207.925 1.75C209.125 1.75 210.008 1.66667 210.575 1.5C211.175 1.33333 211.558 0.999998 211.725 0.499998C211.758 0.366665 211.858 0.299998 212.025 0.299998C212.192 0.299998 212.275 0.366665 212.275 0.499998C212.175 1.46666 212.075 2.93333 211.975 4.9C211.875 6.86667 211.825 8.46667 211.825 9.7C211.825 9.76667 211.725 9.8 211.525 9.8C211.325 9.8 211.225 9.76667 211.225 9.7C211.125 7.1 210.592 5.28333 209.625 4.25C208.658 3.18333 207.058 2.65 204.825 2.65C203.325 2.65 202.258 2.71666 201.625 2.85C200.992 2.98333 200.558 3.26667 200.325 3.7C200.092 4.13333 199.975 4.86667 199.975 5.9V28.95C199.975 29.9833 200.092 30.7333 200.325 31.2C200.558 31.6667 201.008 31.9833 201.675 32.15C202.342 32.3167 203.392 32.4 204.825 32.4C204.925 32.4 204.975 32.5 204.975 32.7C204.975 32.9 204.925 33 204.825 33C203.725 33 202.842 32.9833 202.175 32.95L198.275 32.9L194.525 32.95C193.858 32.9833 192.942 33 191.775 33C191.708 33 191.675 32.9 191.675 32.7C191.675 32.5 191.708 32.4 191.775 32.4C193.208 32.4 194.258 32.3167 194.925 32.15C195.592 31.9833 196.042 31.6667 196.275 31.2C196.542 30.7 196.675 29.95 196.675 28.95V5.8C196.675 4.76666 196.558 4.05 196.325 3.65C196.092 3.21667 195.658 2.95 195.025 2.85C194.392 2.71666 193.325 2.65 191.825 2.65ZM221.513 33.65C219.58 33.65 217.863 33.1833 216.363 32.25C214.896 31.2833 213.763 30 212.963 28.4C212.163 26.7667 211.763 25 211.763 23.1C211.763 20.9333 212.28 19.1 213.313 17.6C214.38 16.0667 215.73 14.9333 217.363 14.2C219.03 13.4333 220.713 13.05 222.413 13.05C224.38 13.05 226.096 13.5333 227.563 14.5C229.03 15.4667 230.146 16.75 230.913 18.35C231.713 19.9167 232.113 21.5833 232.113 23.35C232.113 25.4167 231.63 27.2333 230.663 28.8C229.696 30.3333 228.396 31.5333 226.763 32.4C225.163 33.2333 223.413 33.65 221.513 33.65ZM222.963 32.7C224.796 32.7 226.213 32.05 227.213 30.75C228.213 29.45 228.713 27.45 228.713 24.75C228.713 22.6833 228.363 20.8333 227.663 19.2C226.996 17.5667 226.063 16.3 224.863 15.4C223.663 14.4667 222.296 14 220.763 14C218.963 14 217.563 14.65 216.563 15.95C215.596 17.25 215.113 19.1167 215.113 21.55C215.113 23.5833 215.446 25.45 216.113 27.15C216.78 28.85 217.713 30.2 218.913 31.2C220.113 32.2 221.463 32.7 222.963 32.7ZM260.757 33.2C259.791 33.2 258.674 33.15 257.407 33.05C256.941 33.0167 256.341 32.9833 255.607 32.95C254.907 32.9167 254.124 32.9 253.257 32.9L249.857 32.95C249.257 32.9833 248.424 33 247.357 33C247.291 33 247.257 32.9 247.257 32.7C247.257 32.5 247.291 32.4 247.357 32.4C248.624 32.4 249.541 32.3167 250.107 32.15C250.707 31.9833 251.107 31.6667 251.307 31.2C251.541 30.7 251.657 29.95 251.657 28.95V5.8C251.657 4.8 251.557 4.06667 251.357 3.6C251.157 3.13333 250.757 2.81666 250.157 2.65C249.591 2.45 248.674 2.35 247.407 2.35C247.341 2.35 247.307 2.25 247.307 2.05C247.307 1.85 247.341 1.75 247.407 1.75L249.907 1.8C251.307 1.86667 252.424 1.9 253.257 1.9C254.524 1.9 255.774 1.85 257.007 1.75C258.474 1.68333 259.491 1.65 260.057 1.65C263.524 1.65 266.591 2.31667 269.257 3.65C271.957 4.98333 274.041 6.8 275.507 9.1C276.974 11.4 277.707 13.9833 277.707 16.85C277.707 20.0833 276.941 22.95 275.407 25.45C273.907 27.9167 271.857 29.8333 269.257 31.2C266.657 32.5333 263.824 33.2 260.757 33.2ZM260.257 32.45C262.924 32.45 265.291 31.9 267.357 30.8C269.424 29.6667 271.024 28.0167 272.157 25.85C273.324 23.65 273.907 21.0167 273.907 17.95C273.907 15.05 273.357 12.4167 272.257 10.05C271.157 7.68333 269.591 5.81666 267.557 4.45C265.524 3.08333 263.174 2.4 260.507 2.4C259.074 2.4 257.957 2.48333 257.157 2.65C256.391 2.81666 255.824 3.15 255.457 3.65C255.091 4.15 254.907 4.9 254.907 5.9V28.4C254.907 29.4 255.041 30.1833 255.307 30.75C255.607 31.3167 256.141 31.75 256.907 32.05C257.707 32.3167 258.824 32.45 260.257 32.45ZM287.028 7.4C286.328 7.4 285.778 7.21667 285.378 6.85C285.011 6.48333 284.828 5.96667 284.828 5.3C284.828 4.63333 285.011 4.11667 285.378 3.75C285.778 3.38333 286.328 3.2 287.028 3.2C287.694 3.2 288.211 3.38333 288.578 3.75C288.944 4.11667 289.128 4.63333 289.128 5.3C289.128 5.96667 288.944 6.48333 288.578 6.85C288.211 7.21667 287.694 7.4 287.028 7.4ZM282.828 33C282.761 33 282.728 32.9 282.728 32.7C282.728 32.5 282.761 32.4 282.828 32.4C283.728 32.4 284.394 32.3167 284.828 32.15C285.294 31.95 285.611 31.6167 285.778 31.15C285.944 30.65 286.028 29.9167 286.028 28.95V19.6C286.028 18.4 285.894 17.5333 285.628 17C285.394 16.4667 284.978 16.2 284.378 16.2C283.778 16.2 283.028 16.4333 282.128 16.9H282.078C281.944 16.9 281.844 16.8167 281.778 16.65C281.711 16.4833 281.728 16.3667 281.828 16.3L288.328 13.3L288.528 13.25C288.594 13.25 288.678 13.3 288.778 13.4C288.878 13.4667 288.928 13.55 288.928 13.65C288.928 13.8833 288.911 14.55 288.878 15.65C288.844 16.75 288.828 18.05 288.828 19.55V28.95C288.828 29.95 288.911 30.6833 289.078 31.15C289.244 31.6167 289.544 31.95 289.978 32.15C290.411 32.3167 291.078 32.4 291.978 32.4C292.078 32.4 292.128 32.5 292.128 32.7C292.128 32.9 292.078 33 291.978 33C291.211 33 290.594 32.9833 290.128 32.95L287.428 32.9L284.728 32.95C284.261 32.9833 283.628 33 282.828 33ZM315.4 13.7C315.466 13.7 315.5 13.8 315.5 14C315.5 14.2 315.466 14.3 315.4 14.3C314.566 14.3 313.85 14.5833 313.25 15.15C312.65 15.6833 312.083 16.6167 311.55 17.95L305.3 32.95C305.233 33.1167 305.05 33.2 304.75 33.2C304.45 33.2 304.266 33.1167 304.2 32.95L297.2 17.85C296.533 16.4167 295.966 15.4667 295.5 15C295.066 14.5333 294.516 14.3 293.85 14.3C293.75 14.3 293.7 14.2 293.7 14C293.7 13.8 293.75 13.7 293.85 13.7C294.516 13.7 295.033 13.7167 295.4 13.75L297.3 13.8L300.55 13.75C301.05 13.7167 301.716 13.7 302.55 13.7C302.65 13.7 302.7 13.8 302.7 14C302.7 14.2 302.65 14.3 302.55 14.3C300.55 14.3 299.55 14.7 299.55 15.5C299.55 15.7333 299.616 15.9833 299.75 16.25L305.85 29.15L310.55 17.7C310.783 17.0667 310.9 16.5833 310.9 16.25C310.9 15.5833 310.583 15.1 309.95 14.8C309.316 14.4667 308.316 14.3 306.95 14.3C306.883 14.3 306.85 14.2 306.85 14C306.85 13.8 306.883 13.7 306.95 13.7C307.85 13.7 308.533 13.7167 309 13.75L312 13.8L313.8 13.75C314.133 13.7167 314.666 13.7 315.4 13.7ZM322.379 7.4C321.679 7.4 321.129 7.21667 320.729 6.85C320.363 6.48333 320.179 5.96667 320.179 5.3C320.179 4.63333 320.363 4.11667 320.729 3.75C321.129 3.38333 321.679 3.2 322.379 3.2C323.046 3.2 323.563 3.38333 323.929 3.75C324.296 4.11667 324.479 4.63333 324.479 5.3C324.479 5.96667 324.296 6.48333 323.929 6.85C323.563 7.21667 323.046 7.4 322.379 7.4ZM318.179 33C318.113 33 318.079 32.9 318.079 32.7C318.079 32.5 318.113 32.4 318.179 32.4C319.079 32.4 319.746 32.3167 320.179 32.15C320.646 31.95 320.963 31.6167 321.129 31.15C321.296 30.65 321.379 29.9167 321.379 28.95V19.6C321.379 18.4 321.246 17.5333 320.979 17C320.746 16.4667 320.329 16.2 319.729 16.2C319.129 16.2 318.379 16.4333 317.479 16.9H317.429C317.296 16.9 317.196 16.8167 317.129 16.65C317.063 16.4833 317.079 16.3667 317.179 16.3L323.679 13.3L323.879 13.25C323.946 13.25 324.029 13.3 324.129 13.4C324.229 13.4667 324.279 13.55 324.279 13.65C324.279 13.8833 324.263 14.55 324.229 15.65C324.196 16.75 324.179 18.05 324.179 19.55V28.95C324.179 29.95 324.263 30.6833 324.429 31.15C324.596 31.6167 324.896 31.95 325.329 32.15C325.763 32.3167 326.429 32.4 327.329 32.4C327.429 32.4 327.479 32.5 327.479 32.7C327.479 32.9 327.429 33 327.329 33C326.563 33 325.946 32.9833 325.479 32.95L322.779 32.9L320.079 32.95C319.613 32.9833 318.979 33 318.179 33ZM353.951 32.4C354.051 32.4 354.101 32.5 354.101 32.7C354.101 32.9 354.051 33 353.951 33C353.185 33 352.585 32.9833 352.151 32.95L349.451 32.9L346.701 32.95C346.268 32.9833 345.668 33 344.901 33C344.801 33 344.751 32.9 344.751 32.7C344.751 32.5 344.801 32.4 344.901 32.4C345.801 32.4 346.468 32.3167 346.901 32.15C347.335 31.95 347.618 31.6167 347.751 31.15C347.918 30.6833 348.001 29.95 348.001 28.95V20.85C348.001 18.8833 347.618 17.4333 346.851 16.5C346.118 15.5667 344.968 15.1 343.401 15.1C342.368 15.1 341.318 15.3833 340.251 15.95C339.218 16.4833 338.268 17.2333 337.401 18.2V28.95C337.401 29.95 337.468 30.6833 337.601 31.15C337.768 31.6167 338.068 31.95 338.501 32.15C338.935 32.3167 339.601 32.4 340.501 32.4C340.601 32.4 340.651 32.5 340.651 32.7C340.651 32.9 340.601 33 340.501 33C339.735 33 339.135 32.9833 338.701 32.95L336.001 32.9L333.251 32.95C332.818 32.9833 332.218 33 331.451 33C331.351 33 331.301 32.9 331.301 32.7C331.301 32.5 331.351 32.4 331.451 32.4C332.351 32.4 333.018 32.3167 333.451 32.15C333.885 31.95 334.168 31.6167 334.301 31.15C334.468 30.6833 334.551 29.95 334.551 28.95V19.05C334.551 17.9167 334.418 17.1 334.151 16.6C333.885 16.1 333.435 15.85 332.801 15.85C332.268 15.85 331.368 16.1 330.101 16.6H330.001C329.868 16.6 329.768 16.5333 329.701 16.4C329.668 16.2333 329.718 16.1167 329.851 16.05L335.651 13.3L335.951 13.25C336.251 13.25 336.568 13.6333 336.901 14.4C337.235 15.1667 337.401 16.15 337.401 17.35C338.668 15.8833 339.918 14.8 341.151 14.1C342.418 13.4 343.718 13.05 345.051 13.05C346.918 13.05 348.351 13.5667 349.351 14.6C350.351 15.6333 350.851 17.15 350.851 19.15V28.95C350.851 29.95 350.918 30.6833 351.051 31.15C351.218 31.6167 351.518 31.95 351.951 32.15C352.385 32.3167 353.051 32.4 353.951 32.4ZM367.631 31.8C369.431 31.8333 370.881 31.9333 371.981 32.1C373.081 32.2333 374.098 32.6667 375.031 33.4C375.965 34.1333 376.431 35.3 376.431 36.9C376.431 38.7 375.848 40.3667 374.681 41.9C373.515 43.4667 371.965 44.7 370.031 45.6C368.131 46.5333 366.131 47 364.031 47C361.731 47 359.915 46.4833 358.581 45.45C357.281 44.45 356.631 43.1333 356.631 41.5C356.631 39.0333 358.348 36.6 361.781 34.2C360.515 34.0333 359.548 33.6833 358.881 33.15C358.215 32.65 357.881 31.8833 357.881 30.85C357.881 29.85 358.165 28.9667 358.731 28.2C359.298 27.4 360.215 26.5 361.481 25.5C360.348 24.9333 359.465 24.15 358.831 23.15C358.198 22.15 357.881 21.05 357.881 19.85C357.881 17.9833 358.615 16.4333 360.081 15.2C361.581 13.9667 363.498 13.35 365.831 13.35C367.998 13.35 369.731 13.8667 371.031 14.9C371.931 14.3667 372.798 13.9667 373.631 13.7C374.498 13.4333 375.415 13.3 376.381 13.3C376.448 13.3 376.498 13.4167 376.531 13.65C376.598 13.8833 376.631 14.1333 376.631 14.4C376.631 14.8 376.581 15.2 376.481 15.6C376.415 16 376.315 16.1667 376.181 16.1C375.615 15.8667 375.065 15.6833 374.531 15.55C374.031 15.4167 373.465 15.35 372.831 15.35C372.498 15.35 372.098 15.3833 371.631 15.45C372.765 16.6833 373.331 18.1167 373.331 19.75C373.331 20.9167 372.998 22.0167 372.331 23.05C371.698 24.05 370.781 24.85 369.581 25.45C368.381 26.05 367.015 26.35 365.481 26.35C364.315 26.35 363.231 26.1667 362.231 25.8C361.565 26.3667 361.081 26.9 360.781 27.4C360.515 27.9 360.381 28.45 360.381 29.05C360.381 29.7833 360.598 30.35 361.031 30.75C361.498 31.1167 362.248 31.3833 363.281 31.55C364.315 31.7167 365.765 31.8 367.631 31.8ZM364.631 14.1C362.198 14.1 360.981 15.6167 360.981 18.65C360.981 20.15 361.248 21.4333 361.781 22.5C362.315 23.5333 362.998 24.3167 363.831 24.85C364.665 25.35 365.531 25.6 366.431 25.6C367.565 25.6 368.465 25.2167 369.131 24.45C369.831 23.65 370.181 22.45 370.181 20.85C370.181 18.7833 369.648 17.15 368.581 15.95C367.515 14.7167 366.198 14.1 364.631 14.1ZM366.081 45.5C368.381 45.5 370.265 44.8833 371.731 43.65C373.198 42.45 373.931 40.8333 373.931 38.8C373.931 37.4667 373.598 36.4833 372.931 35.85C372.298 35.25 371.448 34.8667 370.381 34.7C369.315 34.5333 367.831 34.45 365.931 34.45C365.131 34.45 364.131 34.4167 362.931 34.35C361.831 35.05 360.981 35.8167 360.381 36.65C359.815 37.5167 359.531 38.5833 359.531 39.85C359.531 41.5833 360.098 42.95 361.231 43.95C362.398 44.9833 364.015 45.5 366.081 45.5Z" fill="black"/>
</svg>
