<svg width="53" height="35" viewBox="0 0 53 35" fill="none" xmlns="http://www.w3.org/2000/svg">
<path d="M46.7891 29.5312H6.21094C5.9832 29.5312 5.79688 29.4082 5.79688 29.2578V27.0703C5.79688 26.9199 5.9832 26.7969 6.21094 26.7969H46.7891C47.0168 26.7969 47.2031 26.9199 47.2031 27.0703V29.2578C47.2031 29.4082 47.0168 29.5312 46.7891 29.5312ZM46.7891 8.20312H6.21094C5.9832 8.20312 5.79688 8.08008 5.79688 7.92969V5.74219C5.79688 5.5918 5.9832 5.46875 6.21094 5.46875H46.7891C47.0168 5.46875 47.2031 5.5918 47.2031 5.74219V7.92969C47.2031 8.08008 47.0168 8.20312 46.7891 8.20312ZM46.7891 18.8672H6.21094C5.9832 18.8672 5.79688 18.7441 5.79688 18.5938V16.4062C5.79688 16.2559 5.9832 16.1328 6.21094 16.1328H46.7891C47.0168 16.1328 47.2031 16.2559 47.2031 16.4062V18.5938C47.2031 18.7441 47.0168 18.8672 46.7891 18.8672Z" fill="black"/>
</svg>
