<svg width="27" height="24" viewBox="0 0 27 24" fill="none" xmlns="http://www.w3.org/2000/svg">
<path fill-rule="evenodd" clip-rule="evenodd" d="M17.51 14.899L23.0276 20.279C23.2215 20.4682 23.3304 20.7248 23.3303 20.9923C23.3302 21.2599 23.2212 21.5164 23.0271 21.7055C22.833 21.8946 22.5699 22.0008 22.2955 22.0007C22.0211 22.0006 21.758 21.8942 21.5641 21.705L16.0465 16.325C14.3971 17.5707 12.3229 18.1569 10.246 17.9643C8.16904 17.7718 6.24532 16.815 4.86618 15.2886C3.48704 13.7622 2.75606 11.7808 2.82197 9.74753C2.88787 7.71427 3.7457 5.78185 5.22095 4.34339C6.69619 2.90494 8.67803 2.0685 10.7633 2.00424C12.8486 1.93998 14.8806 2.65272 16.4461 3.99747C18.0115 5.34222 18.9928 7.21796 19.1903 9.24312C19.3877 11.2683 18.7865 13.2907 17.509 14.899H17.51ZM11.0232 16C12.6552 16 14.2204 15.3678 15.3744 14.2426C16.5284 13.1174 17.1767 11.5913 17.1767 9.99999C17.1767 8.40869 16.5284 6.88257 15.3744 5.75735C14.2204 4.63213 12.6552 3.99999 11.0232 3.99999C9.39124 3.99999 7.82609 4.63213 6.67209 5.75735C5.51809 6.88257 4.86979 8.40869 4.86979 9.99999C4.86979 11.5913 5.51809 13.1174 6.67209 14.2426C7.82609 15.3678 9.39124 16 11.0232 16Z" fill="black"/>
</svg>
