<svg width="45" height="43" viewBox="0 0 45 43" fill="none" xmlns="http://www.w3.org/2000/svg">
<g clip-path="url(#clip0_7_50)">
<path d="M16.2393 11.0127C16.2393 9.42879 16.8974 7.90973 18.0687 6.78972C19.24 5.66971 20.8287 5.0405 22.4852 5.0405C24.1418 5.0405 25.7304 5.66971 26.9018 6.78972C28.0731 7.90973 28.7311 9.42879 28.7311 11.0127V14.3333H31.2295V11.0127C31.2295 9.91473 31.0033 8.82748 30.5639 7.81306C30.1245 6.79865 29.4804 5.87692 28.6684 5.10052C27.8564 4.32412 26.8924 3.70825 25.8315 3.28806C24.7706 2.86788 23.6336 2.65161 22.4852 2.65161C21.3369 2.65161 20.1999 2.86788 19.1389 3.28806C18.078 3.70825 17.1141 4.32412 16.3021 5.10052C15.4901 5.87692 14.846 6.79865 14.4066 7.81306C13.9671 8.82748 13.741 9.91473 13.741 11.0127V14.3333H16.2393V11.0127Z" fill="black"/>
<path d="M31.2296 14.3334V18.0362C31.2296 18.3529 31.098 18.6568 30.8638 18.8808C30.6295 19.1048 30.3118 19.2306 29.9805 19.2306C29.6492 19.2306 29.3314 19.1048 29.0972 18.8808C28.8629 18.6568 28.7313 18.3529 28.7313 18.0362V14.3334H16.2395V18.0362C16.2395 18.3529 16.1079 18.6568 15.8736 18.8808C15.6393 19.1048 15.3216 19.2306 14.9903 19.2306C14.659 19.2306 14.3412 19.1048 14.107 18.8808C13.8727 18.6568 13.7411 18.3529 13.7411 18.0362V14.3334H4.99683V38.2223C4.99683 38.8558 5.26005 39.4635 5.72858 39.9115C6.19711 40.3595 6.83258 40.6112 7.49519 40.6112H37.4755C38.1382 40.6112 38.7736 40.3595 39.2422 39.9115C39.7107 39.4635 39.9739 38.8558 39.9739 38.2223V14.3334H31.2296Z" fill="black"/>
</g>
<defs>
<clipPath id="clip0_7_50">
<rect width="44.9705" height="43" fill="white"/>
</clipPath>
</defs>
</svg>
