<svg width="45" height="45" viewBox="0 0 45 45" fill="none" xmlns="http://www.w3.org/2000/svg">
<path d="M44.9868 0H0.0131836C0.0059025 0 0 0.0059025 0 0.0131836V44.9868C0 44.9941 0.0059025 45 0.0131836 45H44.9868C44.9941 45 45 44.9941 45 44.9868V0.0131836C45 0.0059025 44.9941 0 44.9868 0Z" fill="#1877F2"/>
<path d="M31.2539 29.0039L32.2559 22.5H26.0156V18.2812C26.0156 16.5059 26.8857 14.7656 29.6807 14.7656H32.5195V9.22852C32.5195 9.22852 29.9443 8.78906 27.4834 8.78906C22.3418 8.78906 18.9844 11.9004 18.9844 17.543V22.5H13.2715V29.0039H18.9844V45H26.0156V29.0039H31.2539Z" fill="white"/>
</svg>
