<svg width="45" height="45" viewBox="0 0 45 45" fill="none" xmlns="http://www.w3.org/2000/svg">
<path d="M44.9868 0H0.0131836C0.0059025 0 0 0.0059025 0 0.0131836V44.9868C0 44.9941 0.0059025 45 0.0131836 45H44.9868C44.9941 45 45 44.9941 45 44.9868V0.0131836C45 0.0059025 44.9941 0 44.9868 0Z" fill="black"/>
<path d="M44.9868 0H0.0131836C0.0059025 0 0 0.0059025 0 0.0131836V44.9868C0 44.9941 0.0059025 45 0.0131836 45H44.9868C44.9941 45 45 44.9941 45 44.9868V0.0131836C45 0.0059025 44.9941 0 44.9868 0Z" fill="url(#paint0_radial_87_300)"/>
<path d="M44.9868 0H0.0131836C0.0059025 0 0 0.0059025 0 0.0131836V44.9868C0 44.9941 0.0059025 45 0.0131836 45H44.9868C44.9941 45 45 44.9941 45 44.9868V0.0131836C45 0.0059025 44.9941 0 44.9868 0Z" fill="url(#paint1_linear_87_300)"/>
<path d="M28.916 8.96484H16.084C12.1522 8.96484 8.96484 12.1522 8.96484 16.084V28.916C8.96484 32.8478 12.1522 36.0352 16.084 36.0352H28.916C32.8478 36.0352 36.0352 32.8478 36.0352 28.916V16.084C36.0352 12.1522 32.8478 8.96484 28.916 8.96484Z" stroke="white" stroke-width="4"/>
<path d="M22.5 28.8281C25.9949 28.8281 28.8281 25.9949 28.8281 22.5C28.8281 19.0051 25.9949 16.1719 22.5 16.1719C19.0051 16.1719 16.1719 19.0051 16.1719 22.5C16.1719 25.9949 19.0051 28.8281 22.5 28.8281Z" stroke="white" stroke-width="2"/>
<path d="M30.498 15.0293C30.7893 15.0293 31.0254 14.7932 31.0254 14.502C31.0254 14.2107 30.7893 13.9746 30.498 13.9746C30.2068 13.9746 29.9707 14.2107 29.9707 14.502C29.9707 14.7932 30.2068 15.0293 30.498 15.0293Z" stroke="white" stroke-width="5.41062"/>
<defs>
<radialGradient id="paint0_radial_87_300" cx="0" cy="0" r="1" gradientUnits="userSpaceOnUse" gradientTransform="translate(18 45) scale(45)">
<stop offset="0.1" stop-color="#FFDD55"/>
<stop offset="0.5" stop-color="#FF543E"/>
<stop offset="1" stop-color="#C837AB"/>
</radialGradient>
<linearGradient id="paint1_linear_87_300" x1="0" y1="0" x2="9" y2="45" gradientUnits="userSpaceOnUse">
<stop offset="0.1" stop-color="#3771C8"/>
<stop offset="0.5" stop-color="#6600FF" stop-opacity="0"/>
</linearGradient>
</defs>
</svg>
